<svg xmlns="http://www.w3.org/2000/svg" viewBox="0 0 32 32" fill="none">
  <!-- Background circle -->
  <circle cx="16" cy="16" r="16" fill="#0ea5e9"/>
  
  <!-- Tooth symbol -->
  <path d="M11 10C11 8.89543 11.8954 8 13 8H19C20.1046 8 21 8.89543 21 10V12C21 13.1046 20.1046 14 19 14H18V16C18 17.1046 17.1046 18 16 18C14.8954 18 14 17.1046 14 16V14H13C11.8954 14 11 13.1046 11 12V10Z" fill="white"/>
  
  <!-- Dental tools cross -->
  <rect x="15" y="6" width="2" height="8" rx="1" fill="white"/>
  <rect x="12" y="9" width="8" height="2" rx="1" fill="white"/>
  
  <!-- Small detail dots -->
  <circle cx="10" cy="22" r="1" fill="white" opacity="0.8"/>
  <circle cx="16" cy="24" r="1" fill="white" opacity="0.8"/>
  <circle cx="22" cy="22" r="1" fill="white" opacity="0.8"/>
</svg>
