<svg xmlns="http://www.w3.org/2000/svg" viewBox="0 0 64 64" width="64" height="64">
  <defs>
    <linearGradient id="g" x1="0" y1="0" x2="0" y2="1">
      <stop offset="0" stop-color="#2F7CF6"/>
      <stop offset="1" stop-color="#1B5BD6"/>
    </linearGradient>
  </defs>
  <rect x="4" y="4" width="56" height="56" rx="14" fill="url(#g)"/>
  <path fill="#FFFFFF" d="M32 16c-7.2 0-13 5.8-13 13 0 2.6.8 4.9 1.9 7.2.7 1.4 1.1 3 .7 4.6l-1.1 4.6c-.5 2.1.7 4.3 2.7 5.1 2 .9 4.4.2 5.6-1.6l2.6-3.9c.3-.5.8-.8 1.4-.8s1.1.3 1.4.8l2.6 3.9c1.2 1.8 3.6 2.5 5.6 1.6 2-.9 3.2-3 2.7-5.1l-1.1-4.6c-.4-1.6 0-3.2.7-4.6C44.2 33.9 45 31.6 45 29c0-7.2-5.8-13-13-13zm-6.5 13c0-2.2 1.8-4 4-4 1.2 0 2.3.5 3 1.4.7-.9 1.8-1.4 3-1.4 2.2 0 4 1.8 4 4 0 2.4-1.6 4.4-3.9 5.6-.5.3-1.1.3-1.6 0-.6-.3-1.1-.7-1.5-1.1-.4.4-.9.8-1.5 1.1-.5.3-1.1.3-1.6 0-2.3-1.2-3.9-3.2-3.9-5.6z"/>
  <path fill="#FFFFFF" opacity="0.95" d="M49.5 14.5l1.2 3.6 3.6 1.2-3.6 1.2-1.2 3.6-1.2-3.6-3.6-1.2 3.6-1.2 1.2-3.6z"/>
</svg>
